<svg preserveAspectRatio="none" overflow="visible" style="display: block;" width="26" height="26" viewBox="0 0 26 26" fill="none" xmlns="http://www.w3.org/2000/svg">
<path id="Vector" d="M22.2111 3.78306C21.0131 2.5794 19.5863 1.62502 18.0138 0.975539C16.4414 0.326055 14.7548 -0.0055421 13.0523 7.00635e-05C5.91859 7.00635e-05 0.104523 5.78505 0.104523 12.883C0.104523 15.158 0.705528 17.368 1.82915 19.318L0 26L6.8593 24.206C8.75377 25.233 10.8834 25.779 13.0523 25.779C20.1859 25.779 26 19.994 26 12.896C26 9.45105 24.6543 6.21405 22.2111 3.78306ZM13.0523 23.595C11.1186 23.595 9.22412 23.075 7.56482 22.1L7.17286 21.866L3.09648 22.932L4.1809 18.98L3.9196 18.577C2.84504 16.8702 2.27458 14.8971 2.27337 12.883C2.27337 6.98105 7.10754 2.17106 13.0392 2.17106C15.9136 2.17106 18.6181 3.28906 20.6432 5.31706C21.6461 6.31008 22.4409 7.49136 22.9814 8.79237C23.5219 10.0934 23.7974 11.4883 23.792 12.896C23.8181 18.798 18.9839 23.595 13.0523 23.595ZM18.9578 15.587C18.6312 15.431 17.0372 14.651 16.7497 14.534C16.4492 14.43 16.2402 14.378 16.0181 14.69C15.796 15.015 15.1819 15.743 14.999 15.951C14.8161 16.172 14.6201 16.198 14.2935 16.029C13.9668 15.873 12.9216 15.522 11.6935 14.43C10.7266 13.572 10.0864 12.519 9.89045 12.194C9.70754 11.869 9.86432 11.7 10.0342 11.531C10.1779 11.388 10.3608 11.154 10.5176 10.972C10.6744 10.79 10.7397 10.647 10.8442 10.439C10.9487 10.218 10.8965 10.036 10.8181 9.88004C10.7397 9.72404 10.0864 8.13805 9.82512 7.48805C9.56382 6.86405 9.28945 6.94205 9.09347 6.92905H8.46633C8.24422 6.92905 7.90452 7.00705 7.60402 7.33205C7.31658 7.65705 6.4804 8.43705 6.4804 10.023C6.4804 11.609 7.64322 13.143 7.8 13.351C7.95678 13.572 10.0864 16.822 13.3266 18.213C14.0975 18.551 14.6985 18.746 15.1688 18.889C15.9397 19.136 16.6452 19.097 17.207 19.019C17.8342 18.928 19.1276 18.239 19.3889 17.485C19.6633 16.731 19.6633 16.094 19.5719 15.951C19.4804 15.808 19.2844 15.743 18.9578 15.587Z" fill="white"/>
</svg>
